<svg width="199" height="106" viewBox="0 0 199 106" fill="none" xmlns="http://www.w3.org/2000/svg">
<path d="M41.961 78.4228C34.2539 78.4228 28.2594 84.4552 28.2594 92.2113C28.2594 99.9674 34.2539 106 41.961 106C49.6681 106 55.6626 99.9674 55.6626 92.2113C55.6626 84.4552 49.6681 78.4228 41.961 78.4228ZM123.314 0H116.463V16.8048H142.154L123.314 0ZM0.85627 94.7967H17.9832C17.9832 94.7967 18.8396 68.9431 43.6737 68.9431C62.0852 68.9431 65.0824 94.7967 65.0824 94.7967H107.9V0H0L0.85627 94.7967ZM162.706 78.4228C154.999 78.4228 149.005 84.4552 149.005 92.2113C149.005 99.9674 154.999 106 162.706 106C170.413 106 176.408 99.9674 176.408 92.2113C176.408 84.4552 169.985 78.4228 162.706 78.4228ZM146.436 21.5447H116.463V94.7967H142.154C142.154 94.7967 138.728 73.252 163.563 73.252C182.402 73.252 181.974 94.7967 181.974 94.7967H197.816L198.673 62.4797L146.436 21.5447ZM142.154 77.561H125.027V68.9431H142.154V77.561ZM140.441 62.0487L123.314 51.7073V27.5772H140.441L184.971 62.0487H140.441Z" fill="white" fill-opacity="0.4"/>
</svg>
